# xmcd CD database file
#
# Track frame offsets:
#	150
#	10470
#	22572
#	35440
#	48675
#	63475
#	75327
#	90362
#	105247
#	122565
#	137500
#	153357
#	170472
#	183305
#	197237
#	210470
#	220395
#	235120
#	250255
#	266767
#	281432
#	293742
#	305005
#	316095
#
# Disc length: 4390 seconds
#
# Revision: 0
# Processed by: cddbd v1.5.2PL0 Copyright (c) Steve Scherf et al.
# Submitted via: CDex 1.70beta2
#
DISCID=40112418
DTITLE=Hachidai Nakamura - ACE 7
DYEAR=1900
DGENRE=Jazz
TTITLE0=Blues for Tom
TTITLE1=No Hay Problem
TTITLE2=Broken Promises
TTITLE3=Begin the Beguine
TTITLE4=Golden Striker
TTITLE5=Cielito Londo
TTITLE6=Black March
TTITLE7=Blues de Memphis
TTITLE8=Moanin'
TTITLE9=Les Femmes Disparaissent
TTITLE10=Hitoribochi
TTITLE11=Ascenseur pour L'echafaud
TTITLE12=Amore Mio
TTITLE13=Trois Chambres a Manhattan
TTITLE14=Le Grisbi
TTITLE15=Yogirino Koibitotachi
TTITLE16=Comin' Home Baby
TTITLE17=Django
TTITLE18=Sister Saidie
TTITLE19=The Side Winder
TTITLE20=Kiiroi Tanpopo
TTITLE21=Cool Riders
TTITLE22=Namida o koete
TTITLE23=Night in Tunisia
EXTD=
EXTT0=
EXTT1=
EXTT2=
EXTT3=
EXTT4=
EXTT5=
EXTT6=
EXTT7=
EXTT8=
EXTT9=
EXTT10=
EXTT11=
EXTT12=
EXTT13=
EXTT14=
EXTT15=
EXTT16=
EXTT17=
EXTT18=
EXTT19=
EXTT20=
EXTT21=
EXTT22=
EXTT23=
PLAYORDER=
